# xmcd
#
# Track frame offsets:
#	180
#	15124
#	32074
#	48365
#	68895
#	83817
#	98740
#	116069
#	132811
#	148102
#	162505
#	177571
#	193261
#	208633
#	223329
#
# Disc length: 3199 seconds
#
# Revision: 1
# Processed by: cddbd v1.5.1PL0 Copyright (c) Steve Scherf et al.
# Submitted via: audiograbber 1.82.02
#
DISCID=dc0c7d0f
DTITLE=Various Artist - Sound Choice 8135 Country Hits Vol 14
DYEAR=1900
DGENRE=Karaoke
TTITLE0=Alan Jackson - I'd love you all over again
TTITLE1=Eddie Rabbitt - On second thought
TTITLE2=Lorrie Morgan - Five minutes
TTITLE3=Reba McEntire - Fancy
TTITLE4=Mike Reed - Walk on faith
TTITLE5=Diamond Rio - Mirror, Mirror
TTITLE6=Alan Jackson - Midnight in Montgomery
TTITLE7=Neal McCoy - City put the country back in me
TTITLE8=Cleve Francis - Love or the lack thereof
TTITLE9=Randy Travis - Forever together
TTITLE10=Ricky Van Shelton - I am a simple man
TTITLE11=John Anderson - Seminole wind
TTITLE12=Faith Hill - Take me as I am
TTITLE13=Marty Stuart - Kiss me, I'm gone
TTITLE14=Alabama - Forever's as far as I'll go
EXTD=
EXTT0=
EXTT1=
EXTT2=
EXTT3=
EXTT4=
EXTT5=
EXTT6=
EXTT7=
EXTT8=
EXTT9=
EXTT10=
EXTT11=
EXTT12=
EXTT13=
EXTT14=
PLAYORDER=
